<?xml version="1.0" standalone="no"?>
<!DOCTYPE svg PUBLIC "-//W3C//DTD SVG 20010904//EN"
 "http://www.w3.org/TR/2001/REC-SVG-20010904/DTD/svg10.dtd">
<svg version="1.0" xmlns="http://www.w3.org/2000/svg"
 width="796.000000pt" height="796.000000pt" viewBox="0 0 796.000000 796.000000"
 preserveAspectRatio="xMidYMid meet">
<metadata>
Created by potrace 1.14, written by Peter Selinger 2001-2017
</metadata>
<g transform="translate(0.000000,796.000000) scale(0.100000,-0.100000)"
fill="#000000" stroke="none">
<path d="M4635 5961 c-11 -10 -534 -17 -679 -8 -89 5 -125 -3 -216 -51 -90
-48 -134 -80 -222 -159 -41 -37 -98 -86 -125 -108 -68 -54 -114 -116 -125
-169 -7 -34 -19 -52 -55 -82 -26 -22 -52 -44 -59 -51 -6 -7 -34 -24 -60 -39
-100 -54 -163 -99 -180 -129 -44 -73 17 -181 94 -169 38 6 37 -6 -5 -67 -41
-60 -54 -113 -38 -160 18 -51 28 -119 18 -120 -4 -1 -30 -2 -56 -4 -31 -1 -56
-9 -70 -22 -12 -11 -50 -39 -84 -61 -33 -23 -69 -52 -80 -65 -10 -13 -34 -26
-53 -30 -48 -8 -69 -14 -114 -30 -27 -10 -67 -13 -137 -9 -76 3 -116 0 -169
-14 l-70 -18 -42 31 c-83 59 -220 83 -438 79 -199 -5 -236 -12 -407 -73 -107
-38 -120 -54 -119 -152 1 -88 19 -121 64 -121 23 0 24 -2 19 -52 -3 -37 1 -67
14 -101 11 -26 19 -50 19 -52 0 -2 -25 -20 -55 -40 -36 -23 -66 -52 -86 -85
-24 -38 -48 -60 -102 -92 -40 -24 -94 -64 -122 -90 -27 -27 -78 -62 -113 -79
-97 -49 -101 -57 -98 -202 3 -155 13 -175 91 -177 17 -1 278 -1 580 0 303 0
904 1 1337 0 852 -1 853 -1 903 -54 14 -15 45 -35 70 -46 25 -11 45 -23 46
-27 1 -4 3 -41 5 -82 5 -85 27 -143 76 -197 35 -39 102 -76 124 -67 7 3 21
-11 33 -34 16 -32 85 -93 105 -93 3 0 56 -31 118 -68 62 -37 124 -75 138 -83
14 -7 27 -16 30 -19 3 -3 25 -16 50 -29 55 -29 69 -46 65 -74 -2 -12 -6 -39
-9 -60 -4 -21 -10 -46 -14 -55 -4 -9 -7 -28 -7 -42 1 -14 -11 -43 -26 -64 -22
-33 -25 -45 -18 -70 5 -16 14 -33 20 -37 14 -9 67 -5 139 10 30 7 69 14 85 17
46 6 183 40 245 59 30 10 71 17 91 16 20 -1 54 6 75 15 21 9 68 20 104 25 98
13 108 16 185 53 38 19 88 39 110 45 94 25 261 83 291 102 62 38 87 101 53
134 -5 5 -51 10 -102 10 -74 1 -101 5 -137 23 -29 14 -56 20 -75 16 -43 -7
-132 -32 -193 -54 -28 -11 -54 -20 -57 -20 -3 0 -6 0 -7 -1 -2 0 -41 -2 -88
-4 -71 -2 -149 -9 -230 -19 -9 -1 -21 -5 -28 -10 -6 -4 -12 -5 -12 -3 0 3 -28
-3 -62 -14 -46 -14 -64 -15 -69 -7 -4 7 -6 15 -3 19 2 4 0 19 -5 33 -9 22 -6
27 32 49 23 14 53 37 66 51 l25 26 -21 58 c-21 59 -23 103 -8 253 7 76 7 77
-19 94 -24 16 -28 16 -49 2 -13 -8 -24 -21 -24 -29 0 -7 -4 -44 -8 -83 -13
-110 -12 -176 0 -225 14 -53 13 -54 -60 -91 -46 -23 -50 -28 -53 -65 -2 -28 2
-45 13 -54 8 -7 15 -16 15 -21 0 -11 -60 -72 -61 -62 -3 30 -10 50 -27 72 -18
25 -300 203 -414 262 -43 21 -64 40 -84 74 -29 51 -45 62 -99 71 -26 4 -48 17
-71 42 -36 39 -41 58 -48 159 -6 81 -35 135 -84 154 -20 8 -56 31 -79 51 -44
38 -83 53 -159 62 -22 3 -642 6 -1376 8 l-1334 2 -1 82 0 83 61 29 c33 16 85
53 114 81 29 28 79 66 110 83 31 18 59 36 60 40 2 4 9 8 16 8 6 0 27 25 45 55
21 34 50 66 80 84 25 17 54 37 64 45 26 21 32 84 13 130 -10 24 -16 64 -15
107 1 78 -13 109 -58 128 -22 9 -29 18 -29 39 1 33 6 36 103 69 122 40 199 50
371 48 171 -3 280 -22 322 -55 70 -56 117 -64 194 -35 37 14 66 16 153 12 93
-5 117 -2 183 18 41 12 93 25 115 29 29 4 48 15 71 40 17 20 47 47 67 61 21
13 50 34 66 46 17 13 47 22 75 24 108 6 144 80 106 215 -17 59 -15 78 9 104
51 55 68 139 39 194 -16 30 -63 55 -88 47 -44 -14 -39 9 9 41 28 19 53 34 57
34 14 0 110 65 149 101 22 21 52 47 67 58 25 20 38 48 52 112 7 31 49 77 126
139 30 24 76 64 101 88 26 25 66 57 90 73 24 16 49 32 54 37 6 4 43 22 83 39
55 22 86 29 120 27 130 -8 599 -2 749 11 51 4 104 4 117 1 24 -6 25 -7 10 -41
-18 -43 -18 -76 0 -100 10 -14 11 -27 4 -49 -27 -91 -16 -136 31 -136 37 0 45
12 60 85 7 33 14 65 16 70 1 6 -4 28 -12 49 -11 33 -11 43 0 60 29 45 4 117
-51 145 -31 16 -57 19 -131 18 -50 -1 -94 -3 -96 -6z m890 -3565 c40 -18 40
-19 15 -28 -14 -6 -62 -21 -108 -34 -46 -12 -111 -37 -145 -54 -71 -36 -82
-40 -157 -47 -30 -3 -73 -12 -95 -20 -22 -8 -63 -16 -91 -18 -28 -2 -85 -15
-126 -29 -42 -14 -93 -28 -114 -31 -22 -4 -47 -8 -56 -11 -10 -3 -30 -7 -45
-10 -16 -2 -38 -6 -50 -9 -24 -6 -29 10 -23 75 3 33 4 34 37 23 22 -8 35 -4
73 19 40 25 132 62 185 75 111 27 144 31 287 37 101 5 138 12 253 51 72 25
106 34 115 31 3 -1 23 -10 45 -20z"/>
<path d="M4575 5444 c-5 -1 -22 -5 -38 -8 l-27 -6 2 -327 3 -327 40 -11 c34
-10 119 -4 132 9 2 2 4 85 4 185 1 107 4 179 10 175 5 -3 9 -11 9 -19 0 -7 4
-15 8 -17 4 -1 52 -74 107 -161 59 -95 107 -162 120 -167 23 -9 64 -13 105
-11 56 3 55 -7 55 341 0 235 -3 324 -12 331 -15 13 -126 13 -151 0 -18 -10
-20 -21 -18 -190 0 -98 -2 -177 -5 -175 -3 2 -57 84 -119 183 -96 154 -117
181 -142 186 -39 9 -71 12 -83 9z"/>
<path d="M5234 5441 c-2 -2 -4 -157 -4 -343 l0 -338 28 0 c15 0 49 0 76 0 26
0 52 3 57 6 5 3 9 2 9 -3 0 -9 97 -9 106 0 3 2 20 1 39 -3 19 -4 37 -5 40 -2
3 3 23 5 44 4 36 -2 40 0 45 25 7 39 2 81 -11 94 -8 8 -53 11 -131 10 l-119
-1 1 82 1 82 83 1 c45 1 87 6 92 11 12 12 15 73 6 102 -7 21 -13 22 -95 22
l-88 0 0 55 c0 31 3 57 7 60 4 2 55 5 114 6 118 1 126 6 126 71 0 63 1 62
-220 63 -111 0 -203 -1 -206 -4z"/>
<path d="M5758 5439 c-46 -12 -47 -16 -27 -82 11 -34 21 -71 23 -82 3 -11 28
-99 56 -195 28 -96 53 -184 55 -194 3 -11 12 -41 20 -67 14 -40 21 -49 48 -55
31 -7 74 -7 110 -1 32 6 39 19 62 122 4 18 16 67 21 88 1 4 2 8 3 10 2 1 5 13
7 27 3 14 10 43 16 65 l11 40 8 -30 c5 -16 11 -39 13 -50 8 -35 46 -188 56
-227 9 -33 15 -39 48 -44 46 -7 48 -7 94 0 38 6 56 26 64 72 2 14 15 59 29
102 20 64 36 120 51 177 2 6 21 73 43 150 23 77 41 145 41 152 0 24 -121 34
-159 13 -9 -4 -25 -37 -35 -72 -10 -35 -24 -83 -32 -108 -7 -25 -23 -79 -35
-120 l-23 -75 -27 110 c-15 61 -34 145 -44 187 -16 73 -18 77 -48 84 -39 9
-55 9 -87 0 -28 -8 -31 -13 -75 -196 -36 -148 -37 -154 -38 -167 -1 -19 -17
-16 -17 3 0 8 -18 79 -41 157 -39 136 -47 162 -48 180 -2 21 -97 38 -143 26z"/>
<path d="M5378 4605 c-1 -1 -25 -6 -53 -10 -162 -21 -250 -126 -262 -311 -15
-239 93 -372 307 -379 153 -4 260 48 311 153 13 26 24 49 25 52 21 118 20 209
-3 285 -4 11 -8 26 -9 33 -1 7 -17 33 -36 58 -40 53 -133 104 -205 110 -26 3
-53 7 -60 9 -6 2 -13 2 -15 0z m87 -161 c45 -33 68 -90 71 -179 4 -107 -23
-179 -79 -211 -63 -35 -135 -18 -175 40 -32 47 -40 82 -37 169 4 132 62 208
154 202 22 -2 51 -11 66 -21z"/>
<path d="M5998 4605 c-2 -2 -26 -6 -53 -10 -83 -10 -125 -24 -126 -43 0 -9 0
-152 0 -317 0 -348 -6 -329 98 -323 35 2 68 9 74 15 6 6 10 54 10 120 -1 107
0 110 21 109 17 -1 36 -26 83 -109 34 -60 71 -114 81 -121 22 -16 116 -18 156
-4 l27 10 -40 64 c-21 35 -39 66 -39 68 0 2 -16 28 -35 57 -19 30 -35 57 -35
62 0 5 15 24 34 42 48 47 67 88 70 153 6 126 -78 204 -232 218 -37 3 -72 7
-79 9 -6 2 -13 2 -15 0z m93 -147 c54 -12 73 -100 29 -138 -13 -11 -23 -20
-24 -21 -17 -8 -86 -8 -91 1 -9 14 -9 145 -1 158 5 8 49 8 87 0z"/>
<path d="M4545 4594 c-5 -1 -27 -5 -47 -9 -21 -3 -38 -11 -38 -17 0 -6 25 -54
55 -105 30 -52 55 -98 55 -103 0 -4 3 -10 8 -12 4 -1 26 -36 49 -75 l41 -73 0
-136 c0 -74 3 -139 7 -142 4 -4 40 -7 81 -7 53 0 77 4 83 14 5 8 9 71 9 142
l0 127 57 99 c129 220 158 273 154 278 -13 12 -81 20 -123 14 -27 -5 -49 -10
-50 -11 0 -2 -10 -16 -22 -33 -11 -16 -40 -70 -64 -118 l-44 -88 -15 38 c-9
22 -31 64 -48 96 -18 31 -33 59 -33 62 0 26 -82 68 -115 59z"/>
<path d="M6487 4590 c-20 -4 -40 -10 -44 -13 -3 -4 -6 -151 -7 -326 l-1 -320
23 -11 c29 -13 102 -13 135 -1 l25 10 0 146 c0 81 2 149 5 151 2 2 19 -17 37
-44 19 -26 37 -49 40 -52 4 -3 21 -26 38 -52 18 -25 38 -52 45 -60 7 -7 23
-30 35 -50 29 -47 74 -63 154 -54 33 3 66 9 74 14 10 6 -11 41 -91 152 -58 80
-111 154 -120 165 -8 10 -15 22 -15 25 0 5 58 87 87 125 5 6 26 35 48 65 22
30 42 57 46 60 7 6 29 46 29 54 0 14 -103 22 -155 12 -11 -3 -23 -5 -26 -5 -3
-1 -39 -47 -79 -103 -41 -57 -79 -108 -85 -115 -5 -6 -21 -28 -35 -47 -14 -20
-27 -36 -30 -36 -3 0 -4 65 -3 145 1 113 -2 147 -13 156 -8 6 -14 9 -14 6 0
-3 -15 -2 -32 2 -18 4 -50 4 -71 1z"/>
<path d="M4691 3748 c-105 -16 -181 -77 -197 -161 -25 -130 32 -207 185 -252
47 -14 93 -29 101 -32 8 -3 18 -6 21 -5 4 1 17 -10 29 -23 20 -21 22 -29 12
-49 -25 -56 -138 -51 -271 11 -33 16 -34 16 -57 -11 -16 -18 -24 -40 -24 -65
0 -36 3 -39 53 -63 99 -48 215 -57 345 -25 6 2 33 18 58 35 93 66 110 211 34
290 -33 35 -68 52 -185 89 -126 39 -151 66 -104 109 30 27 131 24 189 -6 39
-20 43 -20 60 -5 26 23 43 71 36 98 -11 45 -171 81 -285 65z"/>
<path d="M5073 3732 c-17 -17 -19 -46 -8 -99 5 -22 10 -23 95 -23 l90 0 0
-265 0 -265 26 -10 c14 -6 43 -10 64 -10 21 0 50 4 64 10 l26 10 0 265 0 265
90 0 c75 0 91 3 98 18 11 22 6 92 -7 105 -17 17 -521 15 -538 -1z"/>
<path d="M5857 3740 c-20 -4 -39 -9 -40 -11 -2 -2 -20 -44 -40 -94 -86 -215
-179 -442 -187 -460 -36 -80 -39 -95 -22 -103 24 -12 112 -15 141 -4 16 6 31
26 45 63 l22 54 125 3 125 3 28 -60 c29 -63 41 -71 111 -71 52 0 85 9 85 24 0
7 -39 106 -86 222 -47 115 -104 255 -127 312 -22 57 -48 107 -56 112 -25 13
-83 18 -124 10z m113 -412 c0 -4 -31 -7 -68 -6 l-69 1 27 71 c15 39 30 80 34
91 6 16 15 2 42 -65 18 -47 34 -88 34 -92z"/>
<path d="M6210 3738 c-24 -9 -35 -64 -21 -101 10 -27 12 -27 96 -27 47 0 85
-3 86 -7 1 -5 2 -124 3 -265 0 -141 5 -260 9 -265 12 -11 138 -14 157 -3 13 7
15 47 15 272 l0 263 92 3 c100 3 103 5 103 77 0 59 4 58 -270 59 -138 1 -260
-2 -270 -6z"/>
<path d="M6834 3735 c-1 -5 -2 -158 -1 -340 l2 -330 212 -3 c194 -2 213 -1
221 15 10 18 10 98 0 108 -3 3 -61 6 -130 6 l-124 1 1 82 1 81 82 1 c85 0 94
3 99 32 7 35 7 48 0 75 -7 26 -10 27 -80 28 -39 1 -79 1 -87 0 -12 -1 -16 11
-17 59 l-1 60 41 1 c23 1 74 0 114 0 80 -2 93 7 93 71 0 63 1 63 -221 63 -128
0 -203 -3 -205 -10z"/>
<path d="M5624 2218 c-3 -4 0 -8 5 -8 6 0 11 -19 11 -42 0 -31 3 -39 10 -28 5
8 7 27 5 43 -4 21 -1 27 12 27 9 0 13 3 9 7 -10 10 -46 11 -52 1z"/>
<path d="M5693 2175 c-2 -27 2 -45 8 -45 6 0 9 6 6 13 -3 8 -1 20 4 28 7 11
10 9 15 -9 7 -25 27 -25 32 1 2 12 -1 15 -12 11 -10 -4 -17 2 -22 20 -10 42
-29 30 -31 -19z"/>
<path d="M5760 2205 c-8 -10 -9 -15 -1 -15 6 0 11 -8 11 -17 0 -10 5 -25 10
-33 7 -11 9 -3 7 27 -3 50 -10 59 -27 38z"/>
</g>
</svg>
